<?xml version="1.0" encoding="UTF-8"?>
<svg id="Layer_1" data-name="Layer 1" xmlns="http://www.w3.org/2000/svg" xmlns:xlink="http://www.w3.org/1999/xlink" viewBox="0 0 1920 565.42">
  <defs>
    <style>
      .cls-1, .cls-2, .cls-3 {
        fill: none;
      }

      .cls-4 {
        fill: url(#linear-gradient);
      }

      .cls-5 {
        clip-path: url(#clippath);
      }

      .cls-2, .cls-3 {
        stroke: #ec008c;
        stroke-linecap: round;
        stroke-linejoin: round;
        stroke-width: 2.5px;
      }

      .cls-6 {
        fill: #fff;
      }

      .cls-7 {
        clip-path: url(#clippath-1);
      }

      .cls-8 {
        clip-path: url(#clippath-4);
      }

      .cls-9 {
        clip-path: url(#clippath-3);
      }

      .cls-10 {
        clip-path: url(#clippath-2);
      }

      .cls-11 {
        clip-path: url(#clippath-7);
      }

      .cls-12 {
        clip-path: url(#clippath-8);
      }

      .cls-13 {
        clip-path: url(#clippath-6);
      }

      .cls-14 {
        clip-path: url(#clippath-5);
      }

      .cls-15 {
        clip-path: url(#clippath-9);
      }

      .cls-16 {
        clip-path: url(#clippath-14);
      }

      .cls-17 {
        clip-path: url(#clippath-13);
      }

      .cls-18 {
        clip-path: url(#clippath-12);
      }

      .cls-19 {
        clip-path: url(#clippath-10);
      }

      .cls-20 {
        clip-path: url(#clippath-15);
      }

      .cls-21 {
        clip-path: url(#clippath-17);
      }

      .cls-22 {
        clip-path: url(#clippath-16);
      }

      .cls-23 {
        clip-path: url(#clippath-11);
      }

      .cls-24 {
        fill: url(#linear-gradient-8);
      }

      .cls-25 {
        fill: url(#linear-gradient-9);
      }

      .cls-26 {
        fill: url(#linear-gradient-3);
      }

      .cls-27 {
        fill: url(#linear-gradient-4);
      }

      .cls-28 {
        fill: url(#linear-gradient-2);
      }

      .cls-29 {
        fill: url(#linear-gradient-6);
      }

      .cls-30 {
        fill: url(#linear-gradient-7);
      }

      .cls-31 {
        fill: url(#linear-gradient-5);
      }

      .cls-32 {
        fill: url(#radial-gradient);
      }

      .cls-33 {
        fill: url(#linear-gradient-14);
      }

      .cls-34 {
        fill: url(#linear-gradient-15);
      }

      .cls-35 {
        fill: url(#linear-gradient-16);
      }

      .cls-36 {
        fill: url(#linear-gradient-17);
      }

      .cls-37 {
        fill: url(#linear-gradient-13);
      }

      .cls-38 {
        fill: url(#linear-gradient-12);
      }

      .cls-39 {
        fill: url(#linear-gradient-10);
      }

      .cls-40 {
        fill: url(#linear-gradient-11);
      }

      .cls-3 {
        stroke-dasharray: 0 0 0 4.73;
      }
    </style>
    <clipPath id="clippath">
      <polygon class="cls-1" points="1650.07 40.55 1667.76 267.71 1668.59 267.71 1686.28 40.55 1650.07 40.55"/>
    </clipPath>
    <linearGradient id="linear-gradient" x1="366.01" y1="956.63" x2="370.47" y2="956.63" gradientTransform="translate(77277.43 29201.06) rotate(-90) scale(79.04 -79.04)" gradientUnits="userSpaceOnUse">
      <stop offset="0" stop-color="#4d4e50"/>
      <stop offset=".44" stop-color="#4d4e50"/>
      <stop offset=".63" stop-color="#3a3b3c"/>
      <stop offset=".83" stop-color="#2d2d2e"/>
      <stop offset="1" stop-color="#29292a"/>
    </linearGradient>
    <clipPath id="clippath-1">
      <path class="cls-1" d="m1733.11,268.82c12.7.45,25.28,1.03,37.72,1.75.16,0,.33.02.5.03.97.06,1.94.12,2.91.17.2.01.4.02.6.04.25.02.51.03.76.04.28.02.56.04.84.05.36.02.7.04,1.06.06.29.02.58.04.87.05.21,0,.42.03.63.04.33.02.66.04.98.06.17.01.34.03.51.04.44.03.89.05,1.33.08.16.01.33.03.5.04.37.02.74.04,1.11.07.14.01.27.02.4.03.49.03.99.07,1.49.1.08,0,.17,0,.26.02.45.03.89.06,1.33.09.08,0,.17.01.25.02,1.07.07,2.13.14,3.19.21.05,0,.09,0,.14.01,1.07.07,2.14.15,3.21.22.04,0,.09,0,.13,0,29.5,2.11,58.11,4.97,85.53,8.54,1.53.2,3.04.4,4.55.6v-22.04l-150.82,9.67Z"/>
    </clipPath>
    <linearGradient id="linear-gradient-2" x1="368.05" y1="960.95" x2="372.51" y2="960.95" gradientTransform="translate(-30391.57 83974.4) scale(87.11 -87.11)" xlink:href="#linear-gradient"/>
    <clipPath id="clippath-2">
      <path class="cls-1" d="m1402.22,289.46c.43-.08.86-.16,1.29-.24.08,0,.16-.03.24-.04.43-.08.86-.16,1.29-.23.03,0,.07,0,.09-.01.41-.08.83-.15,1.24-.22.07-.01.14-.02.21-.04.44-.08.87-.16,1.32-.23.03,0,.06-.01.1-.02.44-.08.88-.15,1.32-.23.02,0,.04,0,.07-.01.46-.08.92-.16,1.38-.24.03,0,.07,0,.09-.02.92-.16,1.86-.32,2.79-.47.03,0,.07,0,.09-.01,57.8-9.77,122.45-16.09,190.44-18.56l-201.96-12.96v33.52Z"/>
    </clipPath>
    <linearGradient id="linear-gradient-3" x1="361.95" y1="959.08" x2="366.41" y2="959.08" gradientTransform="translate(33195.81 -83269.13) rotate(-180) scale(87.11 -87.11)" xlink:href="#linear-gradient"/>
    <clipPath id="clippath-3">
      <path class="cls-1" d="m1579.76,40.55l86.41,227.16h.88l-48.47-227.16h-38.83Z"/>
    </clipPath>
    <linearGradient id="linear-gradient-4" x1="365.1" y1="956.65" x2="369.56" y2="956.65" gradientTransform="translate(77887.35 29386.34) rotate(-90) scale(79.72 -79.72)" xlink:href="#linear-gradient"/>
    <clipPath id="clippath-4">
      <path class="cls-1" d="m1684.83,267.78c.29,0,.58,0,.87,0,2.87.02,5.73.05,8.59.09.92.01,1.85.03,2.77.04l186.87-32.83v-29.67l-199.1,62.36Z"/>
    </clipPath>
    <linearGradient id="linear-gradient-5" x1="368.2" y1="960.17" x2="372.66" y2="960.17" gradientTransform="translate(-30263.32 83491.75) scale(86.71 -86.71)" xlink:href="#linear-gradient"/>
    <clipPath id="clippath-5">
      <path class="cls-1" d="m1495.11,40.55l169.14,227.17h.48c.21,0,.41,0,.62,0l-121.88-227.16h-48.36Z"/>
    </clipPath>
    <linearGradient id="linear-gradient-6" x1="364.21" y1="956.84" x2="368.67" y2="956.84" gradientTransform="translate(79372.36 29911.92) rotate(-90) scale(81.3 -81.3)" xlink:href="#linear-gradient"/>
    <clipPath id="clippath-6">
      <path class="cls-1" d="m1676.76,267.72c.41,0,.81,0,1.22,0,.7,0,1.39,0,2.08.01l203.86-90.05v-36.96l-207.16,126.99Z"/>
    </clipPath>
    <linearGradient id="linear-gradient-7" x1="368.17" y1="959.33" x2="372.63" y2="959.33" gradientTransform="translate(-29769.02 82069.53) scale(85.34 -85.34)" xlink:href="#linear-gradient"/>
    <clipPath id="clippath-7">
      <path class="cls-1" d="m1402.22,40.55v22.98l259.28,204.2c.4,0,.81,0,1.21,0h.43l-217.31-227.17h-43.61Z"/>
    </clipPath>
    <linearGradient id="linear-gradient-8" x1="363.42" y1="957.16" x2="367.88" y2="957.16" gradientTransform="translate(81318.49 30627.36) rotate(-90) scale(83.36 -83.36)" xlink:href="#linear-gradient"/>
    <clipPath id="clippath-8">
      <path class="cls-1" d="m1673.22,267.71h.09c.49,0,.99,0,1.48,0h.08l209.06-164.65v-55.63l-210.71,220.27Z"/>
    </clipPath>
    <linearGradient id="linear-gradient-9" x1="367.93" y1="958.51" x2="372.39" y2="958.51" gradientTransform="translate(-29050.82 80055.84) scale(83.36 -83.36)" xlink:href="#linear-gradient"/>
    <clipPath id="clippath-9">
      <path class="cls-1" d="m1402.22,155.51l254.11,112.25c1.09,0,2.19-.01,3.28-.02l-257.39-157.79v45.56Z"/>
    </clipPath>
    <linearGradient id="linear-gradient-10" x1="362.77" y1="957.54" x2="367.23" y2="957.54" gradientTransform="translate(83243.6 31306.76) rotate(-90) scale(85.34 -85.34)" xlink:href="#linear-gradient"/>
    <clipPath id="clippath-10">
      <path class="cls-1" d="m1792.88,40.55l-121.87,227.16h.34c.25,0,.5,0,.75,0l169.14-227.16h-48.36Z"/>
    </clipPath>
    <linearGradient id="linear-gradient-11" x1="367.48" y1="957.49" x2="371.94" y2="957.49" gradientTransform="translate(-28267.61 77999.46) scale(81.3 -81.3)" xlink:href="#linear-gradient"/>
    <clipPath id="clippath-11">
      <path class="cls-1" d="m1402.22,226.27l237.31,41.68c1.31-.02,2.61-.04,3.92-.06.19,0,.37,0,.56,0h.06c2.51-.04,5.02-.06,7.53-.09l-249.38-78.11v36.58Z"/>
    </clipPath>
    <linearGradient id="linear-gradient-12" x1="362.27" y1="958.22" x2="366.73" y2="958.22" gradientTransform="translate(84612.96 31788.83) rotate(-90) scale(86.71 -86.71)" xlink:href="#linear-gradient"/>
    <clipPath id="clippath-12">
      <polygon class="cls-1" points="1717.77 40.55 1669.3 267.71 1669.53 267.71 1670.18 267.71 1756.59 40.55 1717.77 40.55"/>
    </clipPath>
    <linearGradient id="linear-gradient-13" x1="366.83" y1="956.9" x2="371.29" y2="956.9" gradientTransform="translate(-27656.95 76438.38) scale(79.72 -79.72)" xlink:href="#linear-gradient"/>
    <clipPath id="clippath-13">
      <path class="cls-1" d="m1547.68,256.72c0,67.3,54.56,121.86,121.86,121.86s121.86-54.56,121.86-121.86-54.56-121.86-121.86-121.86-121.86,54.56-121.86,121.86"/>
    </clipPath>
    <radialGradient id="radial-gradient" cx="374.78" cy="963.38" fx="374.78" fy="963.38" r="4.46" gradientTransform="translate(-8571.22 26581.03) scale(27.33 -27.33)" gradientUnits="userSpaceOnUse">
      <stop offset="0" stop-color="#fff200"/>
      <stop offset="0" stop-color="#fff200"/>
      <stop offset=".42" stop-color="#fbcd0b"/>
      <stop offset="1" stop-color="#f7941d"/>
    </radialGradient>
    <clipPath id="clippath-14">
      <path class="cls-1" d="m1402.22,301.87v220.41h72.83c.41-1.42.83-2.9,1.28-4.43,16.73-56.88,66.21-186.73,179.6-237.86-91.71.68-179.02,8.29-253.7,21.88"/>
    </clipPath>
    <linearGradient id="linear-gradient-14" x1="363.63" y1="962.91" x2="368.09" y2="962.91" gradientTransform="translate(-50784.96 -19475.9) rotate(90) scale(54.33 -54.33)" gradientUnits="userSpaceOnUse">
      <stop offset="0" stop-color="#009444"/>
      <stop offset=".28" stop-color="#009043"/>
      <stop offset=".51" stop-color="#008640"/>
      <stop offset=".73" stop-color="#00753b"/>
      <stop offset=".85" stop-color="#006838"/>
      <stop offset="1" stop-color="#006838"/>
    </linearGradient>
    <clipPath id="clippath-15">
      <path class="cls-1" d="m1700.77,522.27h183.16v-228.76c-31.94-4.32-65.62-7.64-100.47-9.92-25.83,20.36-86.96,85.01-82.69,238.68"/>
    </clipPath>
    <linearGradient id="linear-gradient-15" x1="363.67" y1="966.73" x2="368.13" y2="966.73" gradientTransform="translate(-49949.68 -19179.95) rotate(90) scale(53.52 -53.52)" gradientUnits="userSpaceOnUse">
      <stop offset="0" stop-color="#1b75bc"/>
      <stop offset=".24" stop-color="#1b71b9"/>
      <stop offset=".45" stop-color="#1e66b1"/>
      <stop offset=".64" stop-color="#2255a4"/>
      <stop offset=".83" stop-color="#293c92"/>
      <stop offset=".85" stop-color="#2a3990"/>
      <stop offset="1" stop-color="#2a3990"/>
    </linearGradient>
    <clipPath id="clippath-16">
      <path class="cls-1" d="m1655.92,279.98c-113.39,51.13-162.86,180.98-179.6,237.86-.45,1.53-.87,3.01-1.28,4.43h49.31c26.41-161.89,131-225.49,165.25-242.23-6.67-.08-13.35-.12-20.07-.12-4.54,0-9.08.02-13.61.06"/>
    </clipPath>
    <linearGradient id="linear-gradient-16" x1="363.63" y1="963.67" x2="368.09" y2="963.67" gradientTransform="translate(-50784.95 -19480.45) rotate(90) scale(54.34 -54.34)" gradientUnits="userSpaceOnUse">
      <stop offset="0" stop-color="#fff200"/>
      <stop offset=".21" stop-color="#fdee00"/>
      <stop offset=".36" stop-color="#f7e502"/>
      <stop offset=".5" stop-color="#eed504"/>
      <stop offset=".63" stop-color="#e1be08"/>
      <stop offset=".75" stop-color="#d1a10c"/>
      <stop offset=".75" stop-color="#d1a10d"/>
      <stop offset="1" stop-color="#d1a10d"/>
    </linearGradient>
    <clipPath id="clippath-17">
      <path class="cls-1" d="m1660.96,522.27h39.81c-4.28-153.67,56.85-218.32,82.69-238.68-9.37-.62-18.81-1.15-28.34-1.61-89.08,64.14-95.62,188.41-94.16,240.3"/>
    </clipPath>
    <linearGradient id="linear-gradient-17" x1="363.69" y1="965.01" x2="368.15" y2="965.01" gradientTransform="translate(-57458.8 -22031.5) rotate(90) scale(61.33 -61.33)" xlink:href="#linear-gradient-16"/>
  </defs>
  <path d="m1883.93,281.2V40.55h-481.72v248.9c78.64-14.15,170.84-21.75,267.32-21.75,75.58,0,148.52,4.67,214.39,13.49"/>
  <g class="cls-5">
    <rect class="cls-4" x="1650.07" y="40.55" width="36.22" height="227.16"/>
  </g>
  <g class="cls-7">
    <rect class="cls-28" x="1733.11" y="259.16" width="150.82" height="22.04"/>
  </g>
  <g class="cls-10">
    <rect class="cls-26" x="1402.22" y="255.94" width="201.96" height="33.52"/>
  </g>
  <g class="cls-9">
    <rect class="cls-27" x="1551.85" y="33.13" width="143.11" height="242.01" transform="translate(15.42 425.42) rotate(-15)"/>
  </g>
  <g class="cls-8">
    <rect class="cls-31" x="1680.13" y="180.72" width="208.49" height="111.9" transform="translate(-.45 469.89) rotate(-15)"/>
  </g>
  <g class="cls-14">
    <rect class="cls-29" x="1449.72" y="13.21" width="261.02" height="281.85" transform="translate(134.64 810.76) rotate(-30)"/>
  </g>
  <g class="cls-13">
    <rect class="cls-30" x="1658.89" y="97.45" width="242.92" height="213.58" transform="translate(136.4 917.54) rotate(-30)"/>
  </g>
  <g class="cls-11">
    <rect class="cls-24" x="1360.11" y="-18.43" width="345.14" height="345.14" transform="translate(339.92 1128.91) rotate(-45)"/>
  </g>
  <g class="cls-12">
    <rect class="cls-25" x="1626.2" y="5.21" width="304.75" height="304.75" transform="translate(409.51 1303.8) rotate(-45)"/>
  </g>
  <g class="cls-15">
    <rect class="cls-39" x="1398.23" y="37.95" width="265.36" height="301.81" transform="translate(601.9 1420.23) rotate(-60)"/>
  </g>
  <g class="cls-19">
    <rect class="cls-40" x="1615.2" y="23.63" width="281.85" height="261.01" transform="translate(744.58 1597.91) rotate(-60)"/>
  </g>
  <g class="cls-23">
    <rect class="cls-38" x="1456.84" y="98.25" width="140.14" height="261.14" transform="translate(910.69 1644.48) rotate(-75)"/>
  </g>
  <g class="cls-18">
    <rect class="cls-37" x="1591.94" y="82.57" width="242.01" height="143.11" transform="translate(1120.72 1768.82) rotate(-75)"/>
  </g>
  <g class="cls-17">
    <rect class="cls-32" x="1547.68" y="134.86" width="243.72" height="243.72"/>
  </g>
  <g>
    <path class="cls-6" d="m1669.54,134.86c67.3,0,121.86,54.55,121.86,121.86s-54.56,121.86-121.86,121.86-121.86-54.55-121.86-121.86,54.56-121.86,121.86-121.86m0-12.22c-35.82,0-69.48,13.95-94.8,39.27-25.33,25.33-39.27,58.99-39.27,94.81s13.95,69.48,39.27,94.8c25.32,25.32,58.99,39.27,94.8,39.27s69.48-13.95,94.8-39.27c25.33-25.32,39.27-58.99,39.27-94.8s-13.94-69.48-39.27-94.81c-25.32-25.32-58.99-39.27-94.8-39.27"/>
    <path d="m1524.35,522.27h136.61c-1.47-51.88,5.08-176.15,94.16-240.3-21.49-1.04-43.37-1.69-65.52-1.93-34.24,16.74-138.84,80.34-165.24,242.23"/>
  </g>
  <g class="cls-16">
    <rect class="cls-33" x="1402.22" y="279.98" width="253.7" height="242.29"/>
  </g>
  <path d="m1883.93,522.27v-7.12c-20.63,2.79-41.99,5.17-63.91,7.12h63.91Z"/>
  <g class="cls-20">
    <rect class="cls-34" x="1696.49" y="283.59" width="187.44" height="238.68"/>
  </g>
  <g class="cls-22">
    <rect class="cls-35" x="1475.04" y="279.92" width="214.55" height="242.35"/>
  </g>
  <g class="cls-21">
    <rect class="cls-36" x="1659.49" y="281.98" width="123.96" height="240.3"/>
  </g>
  <g>
    <g>
      <polygon class="cls-6" points="265.39 138.03 259.96 181.44 225.64 181.44 231.08 291.07 170.8 285.64 170.8 181.44 136.39 181.44 136.39 143.47 265.39 138.03"/>
      <path class="cls-6" d="m239.73,285.64l46.94-147.6,72.29,5.43,44.81,142.17-56.79,5.43-6.82-27.89h-41.26l-5.73,27.28-53.45-4.82Zm92.82-57.25l-12.24-56.1-13.11,56.1h25.35Z"/>
      <path class="cls-6" d="m697.26,285.64l46.94-147.6,72.29,5.43,44.82,142.17-56.79,5.43-6.82-27.89h-41.25l-5.74,27.28-53.45-4.82Zm92.82-57.25l-12.24-56.1-13.11,56.1h25.35Z"/>
      <path class="cls-6" d="m1087.85,285.64l46.94-147.6,72.29,5.43,44.83,142.17-56.8,5.43-6.82-27.89h-41.25l-5.74,27.28-53.45-4.82Zm92.82-57.25l-12.24-56.1-13.11,56.1h25.35Z"/>
      <polygon class="cls-6" points="453.74 198.22 456.84 282.31 408.92 289.55 408.92 143.47 471.34 138.27 505.88 228.57 505.88 138.03 557.95 143.47 550.7 285.64 486.2 291.07 453.74 198.22"/>
      <polygon class="cls-6" points="911.27 198.22 914.37 282.31 866.45 289.55 866.45 143.47 928.87 138.27 963.42 228.57 963.42 138.03 1015.49 143.47 1008.24 285.64 943.73 291.07 911.27 198.22"/>
      <polygon class="cls-6" points="563.09 285.64 563.09 251.71 622.65 180.19 565.49 180.19 565.49 137.36 685.89 143.47 685.89 177.69 627.47 248.53 692.13 248.53 687.81 292.27 563.09 285.64"/>
      <polygon class="cls-6" points="1084.53 140.75 1079.09 290.17 1024.25 290.17 1024.25 148 1084.53 140.75"/>
      <polygon class="cls-6" points="1264.4 239.63 1264.4 285.04 1285.13 286.68 1278.63 306.57 1293.51 312.88 1310.2 288.66 1312.01 237.82 1264.4 239.63"/>
    </g>
    <path class="cls-6" d="m1669.53,267.71c-96.48,0-188.68,7.6-267.32,21.75v12.41c74.69-13.6,161.99-21.2,253.71-21.88,4.53-.04,9.07-.06,13.62-.06,6.71,0,13.4.04,20.06.12,22.15.25,44.03.9,65.52,1.93,9.53.46,18.98,1,28.34,1.61,34.86,2.28,68.53,5.61,100.47,9.93v-12.31c-65.86-8.82-138.81-13.49-214.39-13.49"/>
    <polygon class="cls-6" points="1405.81 25.45 1388.97 25.45 1388.97 42.29 1388.97 520.53 1388.97 537.37 1405.81 537.37 1405.81 25.45"/>
    <path class="cls-6" d="m615.12,425.31c.22-1.46.79-3.47,1.7-6.01.91-2.54,2.03-5.35,3.38-8.43,1.34-3.08,2.85-6.35,4.53-9.82,1.67-3.47,3.48-6.91,5.45-10.34-5.62,6.16-10.73,11.83-15.34,17.01-4.61,5.18-8.82,9.7-12.62,13.56-3.81,3.86-7.28,6.98-10.43,9.38-3.14,2.39-6.06,3.89-8.75,4.47-2.39.58-4.59.54-6.58-.15-1.99-.69-3.73-1.76-5.22-3.23-1.48-1.46-2.7-3.22-3.64-5.27-.95-2.06-1.52-4.21-1.71-6.45-.66-4.79.37-10.65,3.08-17.59,2.71-6.94,6.48-14.29,11.31-22.07,4.83-7.77,10.46-15.61,16.87-23.53,6.4-7.92,13.04-15.29,19.89-22.14,1.06-.98,2.5-1.41,4.29-1.32,1.8.1,3.44.56,4.94,1.39,1.49.83,2.59,1.9,3.31,3.22.71,1.32.58,2.62-.41,3.88-16.64,20.43-29,37.14-37.08,50.14-8.08,13-12.48,21.46-13.21,25.36-.53,2.74-.06,4.62,1.41,5.65,1.47,1.03,3.12,1.15,4.95.37,2.23-.98,5.04-3.18,8.42-6.6,3.38-3.42,7.97-8.43,13.78-15.03,5.8-6.6,13.06-14.95,21.76-25.07,8.7-10.11,19.44-22.31,32.23-36.58,2.43-3.23,5.17-5.52,8.22-6.89,3.05-1.37,5.72-2,8.01-1.91,2.29.1,3.92.76,4.88,1.98.97,1.23.69,2.76-.84,4.62-4.26,5.18-8.5,10.85-12.7,17-4.21,6.16-8.25,12.42-12.13,18.77-3.88,6.35-7.53,12.63-10.96,18.84-3.43,6.21-6.47,11.95-9.13,17.23-2.66,5.28-4.87,9.9-6.64,13.85-1.76,3.96-2.97,6.87-3.62,8.72-.42,1.47-1.32,2.25-2.69,2.35-1.38.1-2.76-.27-4.16-1.1-1.39-.83-2.59-2.01-3.58-3.52-.99-1.51-1.32-3.1-.98-4.76"/>
    <path class="cls-6" d="m665.05,384.11c2.02-1.86,3.97-3.57,5.87-5.13,1.89-1.56,3.8-3.03,5.74-4.4,1.93-1.37,3.92-2.73,6-4.1,2.07-1.37,4.35-2.84,6.84-4.4,2.89-1.76,5.37-2.72,7.43-2.86s3.67.22,4.81,1.1c1.15.88,1.77,2.12,1.87,3.74s-.41,3.25-1.53,4.91c-1.12,1.66-2.51,3.56-4.17,5.71-1.65,2.15-3.36,4.38-5.13,6.67-1.77,2.3-3.47,4.47-5.12,6.52-1.65,2.05-2.96,3.71-3.96,4.99-1.1,1.37-1.75,2.37-1.95,3.01-.2.63-.16,1.03.12,1.17.28.14.75.02,1.42-.37.67-.39,1.43-1.03,2.29-1.9.64-.58,1.7-1.56,3.19-2.93s3.23-2.88,5.24-4.54c2-1.66,4.23-3.42,6.69-5.28,2.46-1.86,5.03-3.62,7.72-5.28,2.68-1.57,4.95-2.42,6.83-2.56,1.86-.15,3.38.14,4.54.88,1.16.73,1.93,1.69,2.31,2.86.39,1.17.44,2.25.16,3.22-.66,1.96-1.31,3.47-1.94,4.54-.63,1.07-1.43,2.59-2.38,4.54-1.4,2.64-1.84,4.3-1.32,4.99.53.68,1.81.51,3.86-.51,2.05-1.03,4.67-2.81,7.88-5.35,3.2-2.54,6.82-5.62,10.85-9.24,1.59-1.47,3.01-2.27,4.24-2.42,1.24-.15,2.11.1,2.65.73.53.64.66,1.59.41,2.86-.26,1.27-1.13,2.59-2.62,3.96-1.49,1.37-3.32,3-5.49,4.91-2.17,1.9-4.46,3.84-6.89,5.79-2.42,1.96-4.9,3.81-7.45,5.57-2.55,1.76-4.95,3.18-7.19,4.25-2.55,1.17-4.77,1.69-6.66,1.54-1.89-.15-3.37-.81-4.44-1.98-1.07-1.17-1.59-2.76-1.56-4.76.03-2.01.69-4.28,1.98-6.82,2.37-4.69,3.3-7.57,2.81-8.65-.49-1.07-2.75.05-6.75,3.37-2,1.67-4.44,3.84-7.31,6.53-2.88,2.68-5.76,5.49-8.66,8.43-2.89,2.93-5.59,5.79-8.08,8.58-2.49,2.78-4.41,5.11-5.74,6.96-1.35,1.96-2.76,3.01-4.23,3.15-1.48.15-2.74-.25-3.78-1.17-1.05-.93-1.68-2.32-1.91-4.18-.23-1.86.18-3.81,1.24-5.86.82-1.57,2.07-3.79,3.74-6.67,1.67-2.89,3.47-5.87,5.4-8.95s3.85-6.06,5.77-8.94c1.91-2.88,3.53-5.16,4.85-6.82,2.31-2.93,3.32-4.69,3.03-5.28-.29-.58-1.31-.41-3.05.51-1.75.93-3.9,2.37-6.46,4.33-2.56,1.95-5.02,4.01-7.35,6.16-1.81,1.66-3.38,2.59-4.72,2.78-1.34.2-2.27-.05-2.8-.73-.53-.68-.58-1.69-.17-3.01.41-1.32,1.41-2.72,3.01-4.18"/>
    <path class="cls-6" d="m801.89,323.13c-1.25,2.05-3.32,4.72-6.19,7.99-2.88,3.27-5.93,6.65-9.17,10.11-3.24,3.47-6.37,6.84-9.39,10.11-3.02,3.28-5.31,5.94-6.85,7.99-4.09,5.47-7.94,10.61-11.53,15.39-3.6,4.79-6.9,9.39-9.93,13.78,2.09,1.76,4.51,2.91,7.25,3.44,2.74.54,5.55.56,8.43.07,2.87-.49,5.69-1.41,8.45-2.78,2.76-1.37,5.25-3.08,7.49-5.13,1.59-1.47,2.98-2.27,4.17-2.42,1.19-.15,2.04.15,2.56.88.52.73.63,1.73.33,3-.31,1.27-1.1,2.49-2.38,3.67-3.72,3.43-8.1,6.33-13.15,8.72-5.05,2.4-10.7,3.59-16.96,3.59-3.43,0-6.12-.39-8.11-1.17-1.98-.78-3.49-1.51-4.5-2.19-3.5,5.37-6.79,10.9-9.88,16.56-3.08,5.67-6.15,11.92-9.19,18.77-1.23,2.83-1.83,4.96-1.8,6.38.02,1.41.53,2.05,1.52,1.9.99-.15,2.35-1.12,4.07-2.93,1.73-1.81,3.72-4.52,5.99-8.14,2.63-4.3,4.74-8.38,6.35-12.24,1.61-3.86,2.82-7.65,3.63-11.36.16-.69.61-1.07,1.35-1.17.74-.1,1.18.19,1.32.88.85,3.71.97,7.84.38,12.38-.59,4.55-1.92,9.12-3.98,13.71-2.9,6.35-5.9,11.6-9,15.76-3.09,4.16-6.09,7.3-8.96,9.46-2.88,2.15-5.52,3.32-7.93,3.51-2.41.2-4.33-.44-5.77-1.9-1.44-1.46-2.29-3.69-2.57-6.67-.27-2.98.31-6.62,1.76-10.92,2.67-8.12,6.34-16.57,11.02-25.37,4.68-8.79,9.9-17.64,15.66-26.54-.29-1.07-.37-2.39-.24-3.96.23-2.64,1.08-4.89,2.56-6.75,1.49-1.86,3.2-2.78,5.16-2.78l.58.07.58.08c3.93-5.77,8.06-11.66,12.4-17.67,4.33-6.01,8.6-11.77,12.8-17.3,4.2-5.52,8.18-10.55,11.95-15.1,3.77-4.55,7.05-8.29,9.85-11.22,2.26-2.34,4.28-3.64,6.06-3.88,1.78-.25,3.16.12,4.16,1.1.99.98,1.5,2.42,1.53,4.33.02,1.9-.59,3.88-1.84,5.94"/>
    <path class="cls-6" d="m829.25,384.12c.85-.79,1.82-1.2,2.89-1.25s1.96.2,2.65.73c.68.54,1.03,1.32,1.04,2.35,0,1.03-.62,2.13-1.9,3.3-4.67,4.3-9,7.18-13,8.65-3.99,1.47-7.43,1.95-10.32,1.47l-2.95,3.52c-2.93,3.32-5.99,6.2-9.19,8.65-3.2,2.44-6.31,4.33-9.37,5.64-3.05,1.32-5.97,2.03-8.76,2.13-2.8.1-5.21-.49-7.25-1.76-2.04-1.27-3.34-3.1-3.92-5.5-.58-2.39-.51-5.11.2-8.14.7-3.02,1.98-6.25,3.85-9.67,1.86-3.42,4.26-6.79,7.19-10.11,2.93-3.32,5.99-6.21,9.19-8.65,3.19-2.44,6.34-4.33,9.44-5.65,3.09-1.32,6.04-2.02,8.83-2.12,2.8-.1,5.21.49,7.25,1.76,2.96,1.96,4.38,5.01,4.25,9.16-.12,4.16-1.52,8.72-4.2,13.7,1.77-.09,3.76-.78,5.97-2.05,2.21-1.27,4.91-3.32,8.09-6.15m-25.13-6.01c-1.24-.39-2.61-.32-4.13.22s-3.08,1.4-4.69,2.56c-1.62,1.18-3.19,2.59-4.7,4.25-1.51,1.66-2.89,3.37-4.12,5.13-1.23,1.76-2.21,3.52-2.95,5.28-.74,1.76-1.17,3.37-1.3,4.83-.13,1.47.03,2.77.46,3.89.44,1.12,1.28,1.88,2.52,2.27,2.47.88,5.2.37,8.2-1.54,3-1.9,5.73-4.66,8.21-8.28l.67-1.03c-.7-.88-1.17-2-1.39-3.38-.22-1.37-.24-2.83-.05-4.4.18-1.56.52-3.13.99-4.69.48-1.57,1.07-2.98,1.77-4.25l.52-.88Z"/>
    <path class="cls-6" d="m829.25,384.11c1.81-1.66,3.72-3.49,5.76-5.5,2.03-2,3.91-3.93,5.64-5.79-.7-.97-1-1.95-.91-2.93.15-1.76.77-3.47,1.84-5.13,1.07-1.66,2.38-3.15,3.92-4.47,1.53-1.32,3.18-2.35,4.96-3.08,1.77-.73,3.49-1.05,5.14-.95,1.44.2,2.35.78,2.7,1.76.36.98.13,2.1-.66,3.37-1.04,1.86-1.41,3.05-1.12,3.59.29.54,1.46.91,3.5,1.1,1.84.2,3.25.88,4.22,2.05.97,1.17,1.13,2.73.47,4.69-.42,1.47-1.14,2.93-2.15,4.4-1.01,1.47-2.17,3.01-3.48,4.62-1.32,1.61-2.74,3.42-4.29,5.42-1.54,2.01-3.05,4.23-4.54,6.67-4.09,6.55-4.14,9.02-.13,7.41,4-1.61,11.37-7.35,22.11-17.23,1.27-1.17,2.5-1.81,3.68-1.9,1.18-.1,2.06.14,2.65.73.58.58.8,1.46.65,2.64s-.92,2.4-2.3,3.67c-1.06.98-2.62,2.34-4.68,4.1-2.06,1.76-4.28,3.61-6.64,5.57-2.37,1.96-4.76,3.86-7.17,5.72-2.41,1.86-4.5,3.32-6.25,4.4-2.59,1.66-5.07,2.64-7.44,2.93-2.37.29-4.45-.54-6.23-2.49-2.59-2.83-3.52-5.82-2.81-8.95.71-3.12,2.72-6.74,6.01-10.85,2.64-3.42,4.7-6.23,6.16-8.43,1.46-2.19,2.42-3.9,2.87-5.13.45-1.22.44-1.98-.02-2.27-.46-.29-1.25-.25-2.36.14-1.31,1.57-2.67,3.13-4.08,4.69-1.4,1.57-2.78,3.03-4.12,4.4-1.34,1.37-2.55,2.59-3.62,3.66-1.07,1.08-1.93,1.91-2.56,2.5-1.38,1.27-2.64,1.93-3.76,1.98s-1.98-.24-2.56-.88c-.58-.64-.77-1.54-.57-2.71.2-1.18.94-2.35,2.22-3.52"/>
    <path class="cls-6" d="m936.27,384.11c1.17-1.17,2.27-1.73,3.3-1.69,1.02.05,1.82.42,2.39,1.1.58.69.82,1.57.72,2.64-.1,1.07-.67,2.1-1.73,3.08-5.42,4.98-11.32,9.85-17.7,14.58-6.38,4.74-12.61,9.24-18.7,13.49-6.09,4.25-11.71,8.16-16.86,11.73-5.15,3.56-9.16,6.62-12.02,9.16-1.78,2.54-3.64,5.06-5.57,7.55s-3.88,4.79-5.88,6.89c-1.99,2.1-3.96,3.91-5.9,5.43-1.94,1.51-3.86,2.56-5.77,3.15-1.32.49-2.64.54-3.98.15-1.33-.39-2.34-1.15-3.02-2.27-.68-1.13-.89-2.67-.62-4.62s1.33-4.28,3.17-6.96c1.85-2.69,4.66-5.77,8.43-9.24,3.77-3.47,8.87-7.31,15.3-11.51.79-1.17,1.76-2.54,2.93-4.1,1.16-1.57,2.35-3.2,3.58-4.91,1.23-1.71,2.47-3.37,3.74-4.99,1.26-1.61,2.34-3.05,3.23-4.32,3.9-5.48,6-8.8,6.3-9.97.3-1.17-1.24-.34-4.62,2.49-4.01,3.42-7.23,6.14-9.65,8.14-2.43,2-4.74,3.3-6.94,3.88-2.39.58-4.38.29-5.94-.88-1.56-1.17-2.53-2.88-2.92-5.13-.39-2.25-.22-4.79.52-7.62.74-2.84,2.16-5.67,4.26-8.5,2.31-3.03,4.94-5.99,7.88-8.87,2.94-2.88,6.17-5.47,9.69-7.77,3.53-2.3,7.31-4.2,11.35-5.72,4.04-1.51,8.32-2.41,12.84-2.71,3.14-.1,5.63.2,7.47.88,1.84.69,3.13,1.61,3.86,2.78.73,1.17.98,2.47.76,3.88-.22,1.42-.79,2.81-1.69,4.18-.78,1.08-1.78,1.71-3.03,1.91-1.24.2-2.2-.2-2.9-1.17-.7-.98-1.83-1.64-3.41-1.98-1.59-.34-4.06-.27-7.43.22-3.17.39-6.26,1.41-9.29,3.08-3.03,1.66-5.83,3.52-8.4,5.57-2.57,2.06-4.79,4.15-6.64,6.3-1.85,2.15-3.14,4.01-3.86,5.57s-.82,2.64-.28,3.22c.54.59,1.97.34,4.31-.74,2.35-1.07,5.3-3.08,8.88-6.01,3.58-2.93,8.59-6.6,15.04-11,1.25-.88,2.51-1.29,3.77-1.25,1.27.05,2.28.44,3.05,1.17.77.74,1.1,1.86,1.02,3.38-.08,1.52-.85,3.3-2.3,5.35-1.32,1.76-2.8,3.79-4.42,6.08-1.62,2.3-3.27,4.67-4.95,7.11-1.68,2.44-3.35,4.87-5.03,7.26-1.68,2.4-3.19,4.62-4.54,6.67,3.12-2.05,6.69-4.35,10.72-6.89,4.04-2.54,8.21-5.28,12.52-8.21,4.31-2.93,8.63-6.01,12.97-9.24,4.34-3.22,8.32-6.5,11.93-9.82"/>
    <path class="cls-6" d="m972.2,363.88c2.4,1.56,3.41,4.05,3.01,7.47-.4,3.42-2.18,7.06-5.36,10.92-3.18,3.86-7.77,7.55-13.79,11.07-6.03,3.52-13.41,6.16-22.17,7.92-1.18,2.34-1.78,4.45-1.8,6.3-.02,1.86.59,3.28,1.82,4.25,1.24.98,3.09,1.35,5.55,1.1,2.46-.25,5.58-1.25,9.35-3.01,4.69-2.25,9.82-5.48,15.36-9.68,5.55-4.2,11.93-9.57,19.15-16.13,1.49-1.47,2.89-2.29,4.17-2.49,1.28-.2,2.25.02,2.87.66.63.64.79,1.59.49,2.86-.31,1.27-1.26,2.64-2.85,4.11-6.7,6.15-13.26,11.93-19.69,17.29-6.43,5.38-13.24,9.97-20.41,13.78-5.95,3.22-11.28,4.96-16,5.2-4.71.24-8.1-.91-10.18-3.45-2.07-2.54-2.46-6.5-1.16-11.87,1.3-5.38,4.95-12.12,10.93-20.23,4.99-6.74,9.63-12.09,13.94-16.05,4.3-3.96,8.17-6.84,11.6-8.65,3.43-1.81,6.42-2.73,8.97-2.79,2.54-.05,4.6.41,6.18,1.4m-9.54,8.5c-1.59.29-3.34,1.03-5.25,2.2-1.91,1.17-3.9,2.66-5.96,4.47-2.06,1.81-4.13,3.88-6.19,6.23-2.06,2.35-3.98,4.74-5.76,7.18,5.16-.98,9.64-2.64,13.41-4.99,3.77-2.35,6.72-4.69,8.83-7.04,2.11-2.34,3.26-4.35,3.46-6.01.19-1.66-.66-2.35-2.53-2.06"/>
    <path class="cls-6" d="m999.22,351.57c1.91-.58,4.01-1.15,6.31-1.69,2.3-.54,4.79-1.05,7.47-1.54,2.6-4.11,5.08-7.79,7.42-11.07,2.34-3.27,4.5-5.74,6.51-7.4.95-.88,1.91-1.52,2.88-1.91.96-.39,1.83-.54,2.6-.44.88,0,1.63.37,2.25,1.1.62.74.92,1.78.9,3.15s-.46,3.05-1.32,5.06c-.86,2-2.27,4.23-4.25,6.67-.33.49-.66.93-.99,1.32-.33.39-.71.83-1.14,1.32,4.45-.59,8.91-1.12,13.41-1.61,4.49-.49,8.95-.98,13.4-1.47,1.92-2.93,3.76-5.52,5.52-7.77,1.76-2.25,3.43-4.05,5.02-5.42.96-.88,1.92-1.52,2.89-1.91.96-.39,1.82-.54,2.6-.44.88,0,1.61.32,2.19.95.58.63.91,1.53,1.01,2.71s-.16,2.6-.74,4.25c-.58,1.66-1.6,3.52-3.05,5.57,1.68-.2,3.24-.44,4.68-.73,1.44-.29,2.86-.59,4.25-.88,1.3-.29,2.29.12,2.97,1.24.68,1.12,1.03,2.42,1.05,3.88.01,1.47-.35,2.86-1.1,4.18-.75,1.32-1.92,2.08-3.5,2.27-2.57.29-5.35.56-8.35.8-3.01.25-6.13.51-9.38.81-2.08,2.54-4.09,5.08-6.02,7.63-1.94,2.54-3.54,4.93-4.81,7.18-1.58,2.44-3.1,4.99-4.55,7.63s-2.83,5.25-4.13,7.84c-1.3,2.59-2.48,5.06-3.51,7.41-1.04,2.35-1.88,4.4-2.52,6.15-.39,1.08-.57,2.05-.55,2.93.01.88.25,1.49.71,1.83.46.35,1.21.39,2.26.15,1.05-.25,2.46-1,4.23-2.27,1.98-1.47,4.58-3.52,7.8-6.16,3.22-2.64,6.62-5.57,10.23-8.79,1.59-1.47,3.09-2.37,4.48-2.71,1.4-.34,2.44-.22,3.12.37.68.58.84,1.54.48,2.86-.36,1.32-1.49,2.86-3.41,4.62l-17.19,15.54c-5.4,4.69-9.94,7.8-13.64,9.31-3.7,1.51-6.36,1.44-7.97-.22-1.8-1.76-2.06-5.5-.78-11.22,1.28-5.72,4.25-12.87,8.91-21.48-1.49,1.37-2.77,2.62-3.84,3.74-1.07,1.13-2.44,2.5-4.1,4.11-1.65,1.61-3.76,3.64-6.32,6.08-2.56,2.44-6.07,5.67-10.52,9.68-5.62,4.99-10.34,8.14-14.17,9.45-3.83,1.32-6.49,1-7.98-.95-1.49-1.96-1.64-5.52-.45-10.7,1.19-5.18,3.99-11.83,8.42-19.94l-7.03,6.6c-1.28,1.17-2.45,1.76-3.53,1.76s-1.87-.32-2.41-.95c-.53-.63-.72-1.51-.57-2.64.14-1.12.8-2.23,1.97-3.3,3.94-3.71,7.68-7.33,11.21-10.85,3.53-3.52,6.91-6.94,10.13-10.26l2.1-3.96-7.48,1.76c-1.3.39-2.24.2-2.81-.58-.57-.79-.83-1.76-.77-2.93.05-1.17.37-2.32.96-3.44.58-1.12,1.43-1.88,2.54-2.27m4.35,47.5c7.1-5.18,13.77-10.8,20.02-16.86,6.24-6.06,12.69-12.46,19.35-19.21.82-1.56,1.64-3.13,2.46-4.69.82-1.56,1.69-3.08,2.6-4.54-4.93.49-9.83.98-14.72,1.47-4.88.49-9.65,1.07-14.3,1.76-1.44,1.86-2.79,3.67-4.07,5.42-1.28,1.76-2.38,3.43-3.3,4.99-1.59,2.44-3.1,4.99-4.55,7.63s-2.83,5.25-4.13,7.84c-1.3,2.59-2.47,5.06-3.5,7.41-1.04,2.35-1.88,4.4-2.52,6.15-.38,1.08-.58,2.05-.55,2.93.02.88.26,1.49.72,1.83.45.35,1.21.39,2.26.15,1.05-.25,2.46-1,4.23-2.27"/>
    <path class="cls-6" d="m1098.45,370.19c-2.99.68-6.21,2.03-9.66,4.03-3.45,2-6.77,4.2-9.96,6.6-3.2,2.39-6.15,4.84-8.85,7.33-2.71,2.5-4.87,4.53-6.47,6.09-1.61,1.66-2.74,3.1-3.38,4.33-.65,1.22-.92,2.13-.83,2.71.1.59.52.81,1.26.66.75-.15,1.76-.81,3.03-1.98,1.28-1.17,2.94-2.61,4.99-4.33,2.06-1.71,4.29-3.49,6.7-5.35,2.41-1.86,4.89-3.69,7.44-5.5,2.55-1.81,4.96-3.35,7.22-4.62,2.26-1.27,4.33-1.98,6.2-2.13,1.87-.14,3.27.32,4.2,1.4.93,1.07,1.25,2.69.97,4.84-.29,2.15-1.45,4.83-3.5,8.06-1.35,2.05-2.1,3.66-2.25,4.83s0,2.03.44,2.57c.44.54,1.1.78,1.99.73.88-.05,1.73-.27,2.55-.66,2.95-1.27,6.43-3.37,10.45-6.3,4.01-2.93,7.84-6.06,11.45-9.38,1.38-1.27,2.69-1.98,3.92-2.13,1.24-.15,2.14.12,2.72.81.58.69.74,1.61.49,2.78-.25,1.17-1.07,2.4-2.45,3.67-2.13,1.95-4.61,4.05-7.44,6.3-2.84,2.25-5.74,4.45-8.71,6.6-2.97,2.15-5.9,4.13-8.8,5.94-2.9,1.82-5.46,3.15-7.68,4.03-2.54,1.08-4.75,1.44-6.62,1.1-1.87-.34-3.26-1.2-4.17-2.56-.91-1.37-1.21-3.22-.91-5.57.3-2.35,1.37-5.08,3.21-8.21,1.94-3.23,2.75-5.16,2.41-5.79-.33-.63-1.23-.46-2.68.51-.83.49-2.3,1.69-4.42,3.59-2.12,1.9-4.54,4.1-7.25,6.6-2.72,2.49-5.5,5.01-8.36,7.55-2.86,2.54-5.4,4.69-7.6,6.45-1.79,1.46-3.65,2.1-5.59,1.9-1.94-.2-3.49-1.1-4.67-2.71-1.18-1.61-1.77-3.84-1.76-6.67,0-2.83,1.05-6.11,3.13-9.82,2.09-3.81,4.75-7.64,7.97-11.51,3.22-3.86,6.81-7.42,10.76-10.7,3.95-3.27,8.16-6.13,12.63-8.58,4.46-2.44,8.99-4.15,13.57-5.13,1.79-.39,3.35-.29,4.66.29,1.32.59,2.23,1.37,2.73,2.35.5.98.54,1.96.11,2.93s-1.49,1.66-3.18,2.05"/>
    <path class="cls-6" d="m1193.12,384.11c1.28-1.17,2.48-1.78,3.6-1.83,1.12-.05,1.98.22,2.57.81.58.58.8,1.44.66,2.56-.15,1.12-.87,2.32-2.15,3.59-7.87,7.23-14.49,12-19.87,14.29-5.38,2.3-9.54,2.91-12.48,1.84-1.18,1.17-2.33,2.35-3.46,3.52-1.13,1.17-2.28,2.29-3.45,3.37-4.26,4-8.46,6.72-12.59,8.13-4.13,1.41-7.68,1.71-10.63.88-2.96-.83-5.01-2.74-6.17-5.72-1.16-2.98-.89-6.91.81-11.8.9-2.44,2.13-5.08,3.7-7.92,1.57-2.84,3.34-5.74,5.31-8.72,1.97-2.98,4.11-5.94,6.42-8.87,2.31-2.93,4.62-5.82,6.92-8.65,3.37-3.91,4.82-5.98,4.36-6.23-.47-.24-2.82,1.49-7.06,5.2-1.37,1.17-3.02,2.64-4.93,4.4-1.91,1.76-3.91,3.59-5.98,5.49-2.07,1.9-4.12,3.79-6.14,5.65-2.02,1.86-3.84,3.57-5.44,5.13-1.28,1.17-2.45,1.78-3.53,1.83-1.08.05-1.94-.24-2.56-.88-.62-.63-.87-1.51-.72-2.64.15-1.12.86-2.27,2.14-3.44,2.34-2.25,5.19-4.94,8.55-8.06,3.35-3.13,6.92-6.5,10.7-10.12,3.79-3.61,7.65-7.28,11.59-10.99,3.94-3.71,7.72-7.23,11.34-10.56,3.61-3.32,6.93-6.35,9.95-9.09,3.02-2.73,5.54-4.89,7.53-6.45,2.1-1.76,3.92-2.73,5.46-2.93,1.53-.19,2.65.12,3.36.95.7.83,1,1.98.87,3.44-.12,1.46-.75,3.03-1.88,4.69-1.91,2.84-4.42,6.18-7.55,10.04-3.13,3.86-6.44,7.94-9.94,12.24-3.51,4.3-7.07,8.7-10.69,13.2-3.62,4.5-6.91,8.79-9.85,12.9-2.95,4.1-5.38,7.92-7.3,11.43-1.92,3.52-2.98,6.4-3.18,8.65-.19,2.15.3,3.55,1.47,4.18,1.16.64,2.63.69,4.38.15,1.76-.54,3.66-1.54,5.69-3.01,2.04-1.47,3.83-3.22,5.38-5.28l1.16-1.61c-.31-2.05-.28-4.33.08-6.82.36-2.49,1.15-5.01,2.35-7.55.24-.49.47-.95.7-1.39.24-.44.47-.91.71-1.39.09-1.07.62-2.18,1.61-3.3.98-1.12,2.15-1.95,3.52-2.49,1.36-.54,2.79-.66,4.28-.37,1.49.29,2.79,1.32,3.91,3.08,1.47,2.25,1.77,4.98.9,8.21-.87,3.22-2.48,6.6-4.84,10.11,3.3,1.37,10.1-2.59,20.39-11.87"/>
    <path class="cls-6" d="m1193.11,384.11c7.23-6.74,14.29-13.73,21.18-20.96,6.89-7.23,13.18-14.03,18.86-20.38,5.69-6.35,10.5-11.88,14.42-16.57,3.93-4.69,6.6-7.82,8.01-9.38,1.52-1.76,2.97-2.66,4.34-2.71,1.37-.05,2.4.41,3.1,1.39.7.98.96,2.35.81,4.1-.16,1.76-.99,3.52-2.51,5.28-5.13,6.06-10.18,12.73-15.17,20.01-4.99,7.28-9.59,14.39-13.82,21.33-4.22,6.94-7.93,13.29-11.12,19.06-3.19,5.77-5.51,10.16-6.95,13.19-1.45,3.13-2.33,5.43-2.65,6.89-.33,1.47-.22,2.29.3,2.49.52.2,1.35-.07,2.49-.8,1.14-.74,2.5-1.78,4.09-3.15,2.64-2.35,5.77-5.06,9.36-8.14,3.59-3.08,7.94-6.96,13.04-11.65,1.93-1.86,3.63-2.98,5.14-3.37,1.5-.39,2.54-.27,3.12.37.58.64.63,1.69.16,3.15-.47,1.47-1.72,3.13-3.74,4.99-5.74,5.28-11.81,11.04-18.23,17.29-6.41,6.26-12.48,12.02-18.22,17.3-3.09,2.83-5.67,4.71-7.76,5.64s-3.71,1.05-4.87.37c-1.16-.68-1.79-2.1-1.9-4.25-.1-2.15.33-4.93,1.32-8.36.97-3.32,2.51-7.23,4.62-11.73,2.1-4.49,4.41-9.02,6.9-13.56,2.5-4.54,4.96-8.91,7.38-13.12,2.42-4.2,4.49-7.72,6.2-10.56,1.71-2.83,2.28-4.1,1.72-3.81-.56.29-1.97,1.61-4.23,3.96-2.26,2.35-5.21,5.41-8.87,9.16-3.65,3.76-7.61,7.65-11.87,11.66-1.38,1.27-2.72,1.98-4,2.12-1.28.15-2.24-.07-2.87-.66-.63-.58-.83-1.46-.58-2.64.25-1.17,1.17-2.49,2.76-3.96"/>
    <path class="cls-6" d="m1276.83,363.88c2.4,1.56,3.41,4.05,3.01,7.47-.4,3.42-2.18,7.06-5.36,10.92-3.18,3.86-7.77,7.55-13.79,11.07-6.03,3.52-13.41,6.16-22.17,7.92-1.18,2.34-1.78,4.45-1.8,6.3-.02,1.86.59,3.28,1.82,4.25,1.24.98,3.09,1.35,5.55,1.1,2.46-.25,5.58-1.25,9.35-3.01,4.69-2.25,9.82-5.48,15.36-9.68,5.54-4.2,11.93-9.57,19.15-16.13,1.49-1.47,2.89-2.29,4.17-2.49,1.28-.2,2.25.02,2.87.66.63.64.79,1.59.49,2.86-.31,1.27-1.26,2.64-2.85,4.11-6.7,6.15-13.26,11.93-19.69,17.29-6.43,5.38-13.24,9.97-20.41,13.78-5.95,3.22-11.28,4.96-16,5.2-4.71.24-8.1-.91-10.18-3.45-2.07-2.54-2.46-6.5-1.16-11.87,1.31-5.38,4.95-12.12,10.93-20.23,4.99-6.74,9.63-12.09,13.94-16.05,4.3-3.96,8.17-6.84,11.6-8.65,3.43-1.81,6.42-2.73,8.97-2.79,2.54-.05,4.6.41,6.18,1.4m-9.54,8.5c-1.59.29-3.34,1.03-5.25,2.2-1.91,1.17-3.9,2.66-5.96,4.47-2.06,1.81-4.13,3.88-6.19,6.23-2.06,2.35-3.98,4.74-5.76,7.18,5.16-.98,9.64-2.64,13.41-4.99,3.77-2.35,6.72-4.69,8.83-7.04,2.11-2.34,3.26-4.35,3.46-6.01.19-1.66-.65-2.35-2.53-2.06"/>
    <path class="cls-6" d="m1324.4,416.78c-3.06,4.32-6.85,7.15-11.35,8.49-4.51,1.34-8.38.89-11.6-1.34-3.22-2.38-4.89-5.84-5.01-10.39-.12-4.54,1.41-8.9,4.61-13.07,3.2-4.32,7.02-7.15,11.46-8.49,4.44-1.34,8.26-.82,11.48,1.56,3.22,2.23,4.9,5.62,5.03,10.16.12,4.54-1.41,8.9-4.61,13.07"/>
    <path class="cls-6" d="m1879.38,520.53H41.06V42.29h1838.32v478.24Zm16.84-495.08H24.22v511.92h1872V25.45Z"/>
  </g>
  <path class="cls-2" d="m325.5,298.14h0"/>
  <path class="cls-2" d="m614.04,454.23h0"/>
  <line class="cls-3" x1="1774.88" y1="213.58" x2="1827.61" y2="213.58"/>
  <path class="cls-2" d="m1838.15,213.58h0m-84.37,0h0"/>
</svg>